<svg width="17" height="17" viewBox="0 0 17 17" fill="none" xmlns="http://www.w3.org/2000/svg">
<g clip-path="url(#clip0_13_1029)">
<path d="M6.21126 8.12158C4.00526 8.12158 2.21126 6.32758 2.21126 4.12158C2.21126 1.91558 4.00526 0.121582 6.21126 0.121582C8.41726 0.121582 10.2113 1.91558 10.2113 4.12158C10.2113 6.32758 8.41726 8.12158 6.21126 8.12158ZM13.7506 6.79425C12.3579 6.70958 11.1293 7.57158 10.5206 8.82692C10.0919 9.71158 10.1626 10.4982 10.4066 11.2036C10.4066 11.2036 10.2113 11.4542 10.2113 11.7876C10.2113 12.4542 10.1966 12.7876 10.1966 12.7876H9.52993C9.16193 12.7876 8.86326 13.0862 8.86326 13.4542V14.1209H8.21126C7.84326 14.1209 7.5446 14.4196 7.5446 14.7876V15.4542C7.5446 15.8222 7.84326 16.1209 8.21126 16.1209H8.7286C9.08193 16.1209 9.42126 15.9802 9.67126 15.7302L12.2226 13.1789C12.8546 13.4529 13.5853 13.5416 14.3513 13.3569C15.6079 13.0542 16.5999 12.0002 16.8246 10.7269C17.1833 8.69025 15.6913 6.91225 13.7506 6.79425ZM14.2113 10.4549C13.6593 10.4549 13.2113 10.0069 13.2113 9.45492C13.2113 8.90292 13.6593 8.45492 14.2113 8.45492C14.7633 8.45492 15.2113 8.90292 15.2113 9.45492C15.2113 10.0069 14.7633 10.4549 14.2113 10.4549ZM6.21126 15.4549V14.7882C6.21126 13.8929 6.8026 13.1336 7.6146 12.8796C7.8006 12.2602 8.27993 11.7669 8.88926 11.5602C8.90726 11.3876 8.94393 11.2296 8.98926 11.0889C8.92126 10.7842 8.89593 10.4836 8.89193 10.1849C8.10326 9.72358 7.18926 9.45492 6.21126 9.45492C3.2706 9.45492 0.87793 11.8476 0.87793 14.7882V15.4549C0.87793 15.8236 1.1766 16.1216 1.5446 16.1216H6.33393C6.25926 15.9122 6.21126 15.6896 6.21126 15.4549Z" fill="white"/>
</g>
<defs>
<clipPath id="clip0_13_1029">
<rect width="16" height="16" fill="white" transform="translate(0.87793 0.121582)"/>
</clipPath>
</defs>
</svg>
