<svg width="17" height="17" viewBox="0 0 17 17" fill="none" xmlns="http://www.w3.org/2000/svg">
<g clip-path="url(#clip0_13_1025)">
<path d="M16.6828 14.9833L9.7281 8.02859C11.5268 7.63793 12.8781 6.03526 12.8781 4.12126C12.8781 1.91526 11.0841 0.12126 8.8781 0.12126C6.9641 0.12126 5.3621 1.47326 4.97076 3.27126L2.0161 0.316594C1.75543 0.0559271 1.3341 0.0559271 1.07343 0.316594C0.812763 0.57726 0.812763 0.998594 1.07343 1.25926L15.7401 15.9259C15.8701 16.0559 16.0408 16.1213 16.2114 16.1213C16.3821 16.1213 16.5528 16.0559 16.6828 15.9259C16.9434 15.6653 16.9434 15.2439 16.6828 14.9833ZM7.52943 9.61326L14.0374 16.1213H3.54476C3.17676 16.1213 2.8781 15.8226 2.8781 15.4546C2.8781 12.6106 4.86943 10.2273 7.52943 9.61326Z" fill="#FD665E"/>
</g>
<defs>
<clipPath id="clip0_13_1025">
<rect width="16" height="16" fill="white" transform="translate(0.87793 0.121582)"/>
</clipPath>
</defs>
</svg>
