<?xml version="1.0" encoding="UTF-8"?>
<svg xmlns="http://www.w3.org/2000/svg" width="100" height="100" viewBox="0 0 1790 2100">
    <path fill-rule="nonzero" fill="green" fill-opacity="1"
          d="M 937.1875 1590.050781 C 937.429688 1590.050781 937.726562 1590.066406 938.085938 1590.097656 C 937.726562 1590.066406 937.429688 1590.050781 937.1875 1590.050781 C 936.949219 1590.050781 936.769531 1590.070312 936.648438 1590.101562 C 936.769531 1590.070312 936.949219 1590.050781 937.1875 1590.050781 Z M 929.402344 1591.003906 L 928.640625 1591.277344 L 926.289062 1592.113281 L 928.640625 1591.277344 L 927.882812 1591.007812 L 928.640625 1591.277344 Z M 1594.839844 390.640625 C 1594.769531 390.640625 1594.699219 390.648438 1594.628906 390.679688 C 1559.140625 405 1524.109375 419.769531 1491.410156 445.601562 C 1456.828125 472.910156 1424.78125 512.640625 1392.460938 552.71875 L 1388.210938 558 L 1387.511719 551.261719 L 1380.910156 487.5 C 1380.878906 487.230469 1380.671875 487.03125 1380.410156 487 L 1380.398438 487 C 1380.390625 487 1380.371094 487 1380.351562 487 C 1380.230469 487 1380.109375 487.039062 1380.019531 487.121094 C 1330.230469 525.871094 1281.191406 564.511719 1246.378906 606.699219 C 1210.5 650.179688 1189.660156 697.53125 1168.660156 745.28125 L 1166.328125 750.570312 L 1163.628906 745.449219 L 1163.570312 745.339844 C 1151.121094 721.671875 1138.839844 698.421875 1114.128906 676.589844 C 1090.75 655.929688 1056.179688 636.488281 1020.589844 616.949219 C 1020.539062 616.921875 1020.480469 616.898438 1020.410156 616.890625 C 1020.390625 616.890625 1020.359375 616.890625 1020.328125 616.890625 C 1020.300781 616.890625 1020.269531 616.890625 1020.230469 616.890625 C 1020.101562 616.921875 1019.980469 616.988281 1019.890625 617.101562 C 1019.789062 617.238281 1019.75 617.410156 1019.800781 617.578125 L 1031.460938 660.558594 L 1033.808594 669.199219 L 1026.96875 663.421875 C 1004.570312 644.5 982.316406 625.699219 963.21875 612.25 C 949.519531 602.589844 937.4375 595.691406 925.746094 589.53125 C 925.664062 589.480469 925.578125 589.460938 925.488281 589.460938 C 925.398438 589.460938 925.3125 589.480469 925.230469 589.53125 C 913.582031 595.769531 901.542969 602.75 887.902344 612.480469 C 868.890625 626.058594 846.75 645 824.476562 664.058594 L 817.671875 669.890625 L 819.964844 661.230469 L 831.355469 618.171875 C 831.433594 617.878906 831.269531 617.589844 830.988281 617.5 C 830.933594 617.480469 830.878906 617.480469 830.820312 617.480469 C 830.730469 617.480469 830.636719 617.5 830.554688 617.550781 C 795.097656 637.308594 760.65625 656.96875 737.398438 677.769531 C 712.820312 699.761719 700.695312 723.089844 688.386719 746.839844 L 688.332031 746.949219 L 685.667969 752.089844 L 683.304688 746.808594 L 683.296875 746.78125 C 662 699.179688 640.859375 651.96875 604.714844 608.71875 C 569.628906 566.75 520.347656 528.421875 470.316406 489.980469 C 470.21875 489.898438 470.101562 489.859375 469.980469 489.871094 C 469.90625 489.871094 469.832031 489.878906 469.761719 489.910156 C 469.582031 489.988281 469.453125 490.160156 469.433594 490.359375 L 463.234375 554.171875 L 462.582031 560.910156 L 458.296875 555.660156 C 425.726562 515.789062 393.421875 476.261719 358.667969 449.160156 C 325.816406 423.550781 290.695312 408.988281 255.097656 394.898438 C 255.035156 394.871094 254.964844 394.859375 254.894531 394.859375 C 254.722656 394.859375 254.566406 394.941406 254.460938 395.070312 C 254.359375 395.199219 254.320312 395.371094 254.359375 395.539062 L 254.394531 395.691406 L 254.433594 395.851562 C 255.449219 400.140625 256.40625 404.191406 257.414062 408.46875 C 257.421875 408.5 257.433594 408.53125 257.441406 408.558594 L 265.023438 440.558594 C 265.785156 453.558594 266.691406 467.011719 267.925781 481.488281 C 267.925781 481.519531 267.929688 481.550781 267.9375 481.570312 C 270.488281 511.519531 274.433594 545.859375 281.382812 589.730469 C 284.625 610.199219 288.519531 632.75 293.085938 656.53125 C 278.78125 642.480469 262.488281 629.148438 244.210938 616.539062 L 244.015625 616.519531 C 243.398438 616.640625 243.195312 617.140625 243.410156 618.03125 C 254.332031 636.871094 264.25 656.789062 273.15625 677.789062 C 275.894531 684.890625 286.082031 720.390625 303.726562 784.308594 C 310.304688 803.660156 317.117188 821.121094 324.160156 836.679688 C 327.847656 844.941406 331.75 852.75 335.867188 860.101562 C 346.535156 877.691406 353.191406 887.699219 355.835938 890.128906 C 355.996094 890.328125 356.152344 890.53125 356.308594 890.730469 C 358.359375 896.089844 360.445312 901.378906 362.566406 906.621094 C 348.832031 896.890625 334.515625 889.128906 319.609375 883.320312 L 319.425781 883.308594 C 319.347656 883.300781 319.277344 883.300781 319.210938 883.300781 C 318.5 883.300781 318.390625 883.878906 318.882812 885.03125 L 351.929688 931.929688 C 380.441406 983.140625 397.546875 1012.148438 403.242188 1018.941406 C 415.609375 1034.140625 422.625 1042.429688 424.292969 1043.828125 C 428.644531 1048.5 433.019531 1052.820312 437.410156 1056.800781 C 438.339844 1057.640625 439.273438 1058.460938 440.203125 1059.28125 C 441.6875 1061.761719 443.171875 1064.238281 444.660156 1066.710938 C 444.113281 1068.519531 443.582031 1070.289062 443.046875 1072.101562 C 442.960938 1072.390625 443.128906 1072.691406 443.417969 1072.78125 C 443.472656 1072.800781 443.523438 1072.800781 443.578125 1072.800781 C 443.8125 1072.800781 444.03125 1072.648438 444.101562 1072.410156 C 444.535156 1070.941406 444.980469 1069.460938 445.421875 1067.980469 C 446.722656 1070.128906 448.035156 1072.300781 449.328125 1074.429688 C 448.492188 1077.261719 447.667969 1080.078125 446.863281 1082.890625 C 445.148438 1088.839844 443.5 1094.75 441.933594 1100.609375 C 438.515625 1091.171875 434.085938 1082.070312 428.644531 1073.300781 C 425.761719 1068.519531 421.257812 1062.410156 415.128906 1054.980469 C 402.714844 1041.570312 396.085938 1034.871094 395.25 1034.871094 C 395.226562 1034.871094 395.207031 1034.871094 395.195312 1034.890625 L 395.003906 1034.859375 C 394.996094 1034.859375 394.992188 1034.859375 394.984375 1034.859375 C 394.621094 1034.859375 394.441406 1035.238281 394.445312 1036 C 394.515625 1036.839844 394.949219 1038.640625 395.753906 1041.378906 C 402.234375 1060.21875 406.121094 1072.371094 407.40625 1077.828125 C 409.324219 1085.070312 410.878906 1092.429688 412.066406 1099.898438 C 413.089844 1107.761719 413.644531 1113.230469 413.730469 1116.328125 C 414.023438 1120.941406 414.269531 1126.179688 414.460938 1132.058594 C 414.847656 1143.820312 415.035156 1158.121094 415.023438 1174.960938 C 415.6875 1184.210938 416.550781 1191 417.621094 1195.339844 C 417.699219 1195.699219 417.78125 1196.058594 417.867188 1196.421875 C 415.046875 1192.589844 412.234375 1188.621094 409.4375 1184.519531 C 403.332031 1176.199219 393.101562 1159.148438 378.753906 1133.378906 L 378.707031 1133.378906 C 378.6875 1133.371094 378.664062 1133.371094 378.640625 1133.371094 C 377.949219 1133.371094 377.46875 1135.410156 377.203125 1139.488281 C 376.859375 1144.019531 376.53125 1153.039062 376.21875 1166.539062 C 376.382812 1183.589844 377.28125 1196.488281 378.925781 1205.25 C 382.515625 1227.628906 391.613281 1253.390625 406.21875 1282.523438 C 419.464844 1307.460938 428.144531 1322.871094 432.261719 1328.761719 C 433.695312 1332.15625 440.117188 1340.230469 451.527344 1352.980469 C 454.347656 1355.828125 457.292969 1358.554688 460.359375 1361.160156 C 451.65625 1363.320312 441.914062 1365.027344 428.863281 1365.070312 C 427.179688 1365.074219 425.457031 1365.050781 423.660156 1365 L 423.574219 1365 L 423.464844 1364.996094 C 423.453125 1364.996094 423.445312 1364.992188 423.433594 1364.992188 C 406.140625 1364.464844 383.304688 1361.15625 359.621094 1357.371094 C 359.59375 1357.367188 359.5625 1357.363281 359.53125 1357.363281 C 359.285156 1357.367188 359.074219 1357.527344 359.003906 1357.757812 C 358.9375 1357.992188 359.027344 1358.242188 359.234375 1358.375 C 396.570312 1382.550781 432.429688 1405.019531 457.59375 1413.679688 C 467.144531 1416.964844 475.0625 1418.21875 481.898438 1418.199219 C 494.945312 1418.15625 504.410156 1413.488281 514.417969 1408.511719 L 521.761719 1404.863281 L 518.171875 1412.234375 L 518.136719 1412.300781 L 518.105469 1412.367188 C 513.984375 1420.828125 509.640625 1429.703125 498.648438 1438.664062 C 489.488281 1446.125 475.691406 1453.644531 461.429688 1461.050781 C 461.230469 1461.15625 461.113281 1461.375 461.140625 1461.601562 C 461.164062 1461.828125 461.328125 1462.011719 461.550781 1462.070312 C 477.402344 1466.074219 493.597656 1469.492188 513.429688 1469.429688 C 518.328125 1469.414062 523.449219 1469.1875 528.84375 1468.699219 C 536.09375 1468.046875 543.847656 1466.925781 552.140625 1465.730469 L 552.230469 1465.714844 L 552.320312 1465.703125 C 567.6875 1463.484375 584.804688 1461.015625 603.277344 1460.957031 L 603.28125 1460.957031 L 603.332031 1460.953125 L 603.339844 1460.953125 C 617.707031 1460.910156 632.90625 1462.320312 648.8125 1466.429688 C 696.164062 1478.660156 749.335938 1514.707031 784.007812 1547.125 C 807.320312 1568.921875 822.367188 1589.171875 834.632812 1608.820312 C 834.738281 1608.984375 834.914062 1609.078125 835.101562 1609.078125 C 835.152344 1609.078125 835.203125 1609.070312 835.253906 1609.054688 C 835.488281 1608.988281 835.652344 1608.773438 835.648438 1608.527344 C 835.648438 1608.484375 835.644531 1608.441406 835.636719 1608.402344 C 827.199219 1572.996094 813.441406 1538.492188 785.414062 1505.816406 C 785.40625 1505.804688 785.394531 1505.792969 785.386719 1505.78125 C 767.070312 1484.4375 742.628906 1463.828125 716.960938 1442.195312 C 716.949219 1442.1875 716.941406 1442.179688 716.933594 1442.171875 L 716.824219 1442.082031 L 716.714844 1441.988281 C 689.035156 1418.664062 660.003906 1394.1875 636.335938 1366.609375 C 636.332031 1366.605469 636.324219 1366.597656 636.320312 1366.589844 C 628.222656 1357.152344 620.738281 1347.339844 614.140625 1337.0625 C 614.136719 1337.058594 614.132812 1337.050781 614.128906 1337.046875 C 570.464844 1269.023438 566.230469 1181.710938 562.054688 1095.359375 L 562.03125 1094.828125 L 561.839844 1090.921875 L 565.597656 1092.011719 L 566.070312 1092.148438 L 566.539062 1092.289062 C 639.9375 1113.648438 714.171875 1135.359375 765.648438 1188.5 C 817.320312 1241.839844 845.757812 1326.5 862.300781 1404.433594 C 877.375 1475.464844 882.65625 1541.382812 887.046875 1606.683594 C 885.472656 1608.972656 884.410156 1611.503906 883.855469 1614.277344 C 883.347656 1615.1875 883.410156 1617.246094 884.042969 1620.441406 C 884.613281 1622.804688 885.617188 1624.636719 887.058594 1625.9375 C 887.78125 1626.589844 888.613281 1627.109375 889.550781 1627.496094 C 890.613281 1627.964844 891.832031 1628.199219 893.210938 1628.199219 C 894.601562 1628.160156 895.863281 1628.011719 896.996094 1627.75 C 905.652344 1624.8125 910.804688 1623.257812 912.457031 1623.089844 L 913.652344 1622.894531 L 928.738281 1621.515625 L 926.132812 1621.292969 L 943.832031 1622.800781 L 945.027344 1622.988281 C 946.679688 1623.144531 951.84375 1624.667969 960.519531 1627.550781 C 961.652344 1627.804688 962.914062 1627.945312 964.304688 1627.976562 C 965.683594 1627.96875 966.902344 1627.726562 967.960938 1627.25 C 968.898438 1626.855469 969.726562 1626.332031 970.441406 1625.675781 C 971.875 1624.363281 972.871094 1622.527344 973.421875 1620.160156 C 974.035156 1616.960938 974.085938 1614.902344 973.574219 1613.992188 C 973 1611.226562 971.921875 1608.703125 970.335938 1606.421875 C 974.3125 1541.097656 979.179688 1475.144531 993.808594 1404.019531 C 1009.859375 1325.984375 1037.769531 1241.148438 1089.101562 1187.480469 C 1140.351562 1133.898438 1214.648438 1111.75 1288.070312 1089.871094 L 1288.539062 1089.730469 L 1292.289062 1088.621094 L 1292.121094 1092.53125 L 1292.121094 1092.671875 L 1292.101562 1093.058594 L 1292.078125 1093.449219 C 1288.460938 1179.699219 1284.71875 1266.878906 1241.550781 1335.070312 C 1241.539062 1335.089844 1241.519531 1335.113281 1241.511719 1335.136719 C 1234.980469 1345.4375 1227.570312 1355.28125 1219.539062 1364.753906 C 1219.53125 1364.773438 1219.511719 1364.792969 1219.5 1364.8125 C 1195.980469 1392.558594 1167.070312 1417.234375 1139.519531 1440.75 L 1139.410156 1440.84375 C 1139.390625 1440.855469 1139.378906 1440.871094 1139.359375 1440.886719 C 1113.828125 1462.671875 1089.539062 1483.425781 1071.359375 1504.882812 C 1071.339844 1504.898438 1071.328125 1504.914062 1071.320312 1504.933594 C 1043.5 1537.777344 1029.96875 1572.363281 1021.761719 1607.816406 C 1021.691406 1608.078125 1021.828125 1608.34375 1022.078125 1608.445312 C 1022.148438 1608.476562 1022.21875 1608.488281 1022.289062 1608.488281 C 1022.480469 1608.488281 1022.660156 1608.394531 1022.761719 1608.226562 C 1034.898438 1588.503906 1049.820312 1568.15625 1073 1546.214844 C 1107.460938 1513.578125 1160.410156 1477.199219 1207.679688 1464.667969 C 1223.558594 1460.460938 1238.75 1458.953125 1253.109375 1458.910156 L 1253.121094 1458.910156 L 1253.140625 1458.90625 L 1253.179688 1458.90625 C 1271.691406 1458.851562 1288.871094 1461.222656 1304.269531 1463.351562 L 1304.351562 1463.359375 C 1312.648438 1464.507812 1320.410156 1465.578125 1327.660156 1466.183594 C 1333.058594 1466.636719 1338.179688 1466.832031 1343.078125 1466.816406 C 1362.890625 1466.753906 1379.050781 1463.242188 1394.859375 1459.144531 C 1395.089844 1459.109375 1395.269531 1458.933594 1395.320312 1458.703125 C 1395.359375 1458.464844 1395.25 1458.222656 1395.03125 1458.109375 C 1380.71875 1450.792969 1366.871094 1443.363281 1357.671875 1435.957031 C 1346.589844 1427.046875 1342.191406 1418.175781 1338.011719 1409.71875 L 1337.980469 1409.652344 L 1334.339844 1402.304688 L 1341.710938 1405.90625 C 1351.75 1410.820312 1361.238281 1415.429688 1374.289062 1415.390625 C 1381.121094 1415.367188 1389.03125 1414.0625 1398.558594 1410.714844 C 1423.671875 1401.898438 1459.390625 1379.199219 1496.578125 1354.792969 C 1496.769531 1354.664062 1496.871094 1354.421875 1496.808594 1354.195312 C 1496.75 1353.964844 1496.550781 1353.800781 1496.320312 1353.785156 L 1496.308594 1353.785156 C 1496.289062 1353.78125 1496.28125 1353.78125 1496.269531 1353.78125 C 1496.238281 1353.78125 1496.210938 1353.785156 1496.179688 1353.789062 C 1472.421875 1357.742188 1449.511719 1361.210938 1432.191406 1361.824219 C 1430.390625 1361.886719 1428.671875 1361.921875 1426.980469 1361.925781 C 1413.941406 1361.96875 1404.179688 1360.320312 1395.46875 1358.214844 C 1398.519531 1355.589844 1401.441406 1352.847656 1404.25 1349.980469 C 1415.578125 1337.15625 1421.941406 1329.042969 1423.359375 1325.640625 C 1427.441406 1319.726562 1436.019531 1304.257812 1449.109375 1279.238281 C 1463.539062 1250.011719 1472.46875 1224.191406 1475.921875 1201.789062 C 1477.5 1193.03125 1478.320312 1180.121094 1478.378906 1163.070312 C 1477.980469 1149.570312 1477.601562 1140.558594 1477.230469 1136.019531 C 1476.929688 1131.949219 1476.441406 1129.910156 1475.75 1129.921875 C 1475.730469 1129.921875 1475.710938 1129.921875 1475.679688 1129.921875 L 1475.640625 1129.929688 C 1461.449219 1155.789062 1451.328125 1172.898438 1445.28125 1181.25 C 1442.5 1185.378906 1439.71875 1189.359375 1436.921875 1193.210938 C 1437 1192.851562 1437.089844 1192.488281 1437.160156 1192.128906 C 1438.199219 1187.789062 1439.03125 1180.988281 1439.628906 1171.730469 C 1439.511719 1154.890625 1439.609375 1140.589844 1439.921875 1128.828125 C 1440.078125 1122.949219 1440.289062 1117.710938 1440.558594 1113.101562 C 1440.621094 1110 1441.140625 1104.519531 1442.109375 1096.660156 C 1443.25 1089.171875 1444.761719 1081.808594 1446.640625 1074.558594 C 1447.890625 1069.089844 1451.691406 1056.921875 1458.058594 1038.039062 C 1458.839844 1035.289062 1459.269531 1033.488281 1459.328125 1032.648438 C 1459.328125 1031.890625 1459.148438 1031.511719 1458.789062 1031.511719 C 1458.78125 1031.511719 1458.769531 1031.511719 1458.769531 1031.511719 L 1458.578125 1031.539062 C 1458.558594 1031.53125 1458.539062 1031.519531 1458.519531 1031.519531 C 1457.679688 1031.519531 1451.101562 1038.269531 1438.769531 1051.761719 C 1432.691406 1059.230469 1428.21875 1065.359375 1425.371094 1070.160156 C 1419.980469 1078.960938 1415.609375 1088.089844 1412.25 1097.558594 C 1410.660156 1091.730469 1408.980469 1085.859375 1407.238281 1079.949219 L 1407.230469 1079.949219 C 1407.230469 1079.921875 1407.21875 1079.890625 1407.210938 1079.859375 C 1406.390625 1077.058594 1405.550781 1074.261719 1404.691406 1071.429688 C 1406.179688 1068.929688 1407.699219 1066.390625 1409.191406 1063.878906 C 1410.699219 1061.328125 1412.210938 1058.769531 1413.71875 1056.210938 C 1414.648438 1055.390625 1415.570312 1054.558594 1416.5 1053.710938 C 1420.871094 1049.710938 1425.210938 1045.359375 1429.539062 1040.660156 C 1431.191406 1039.261719 1438.160156 1030.921875 1450.429688 1015.640625 C 1456.078125 1008.808594 1473 979.699219 1501.191406 928.320312 L 1533.941406 881.210938 C 1534.429688 880.050781 1534.320312 879.46875 1533.609375 879.46875 C 1533.539062 879.46875 1533.460938 879.480469 1533.390625 879.488281 L 1533.210938 879.5 C 1518.339844 885.398438 1504.070312 893.261719 1490.390625 903.058594 C 1492.480469 897.808594 1494.539062 892.5 1496.550781 887.140625 C 1496.710938 886.941406 1496.871094 886.738281 1497.019531 886.539062 C 1499.648438 884.089844 1506.25 874.03125 1516.800781 856.378906 C 1520.871094 849 1524.730469 841.171875 1528.359375 832.890625 C 1535.308594 817.28125 1542.011719 799.78125 1548.460938 780.390625 C 1565.710938 716.371094 1575.671875 680.800781 1578.359375 673.679688 C 1587.140625 652.621094 1596.929688 632.640625 1607.730469 613.730469 C 1607.941406 612.851562 1607.738281 612.351562 1607.121094 612.230469 L 1606.921875 612.25 C 1588.730469 624.96875 1572.519531 638.398438 1558.300781 652.53125 C 1562.71875 628.730469 1566.46875 606.160156 1569.589844 585.671875 C 1576.25 541.769531 1579.980469 507.390625 1582.351562 477.441406 C 1582.359375 477.390625 1582.359375 477.351562 1582.359375 477.308594 C 1583.5 462.839844 1584.320312 449.410156 1585 436.421875 C 1587.550781 425.359375 1589.851562 415.378906 1592.398438 404.269531 L 1595.378906 391.308594 C 1595.421875 391.160156 1595.390625 390.988281 1595.289062 390.859375 C 1595.191406 390.730469 1595.050781 390.648438 1594.890625 390.640625 L 1594.878906 390.640625 C 1594.859375 390.640625 1594.851562 390.640625 1594.839844 390.640625 Z M 1594.839844 390.640625 "/>
    <path fill-rule="nonzero" fill="green" fill-opacity="1"
          d="M 1225.640625 1217.351562 L 1225.519531 1217.359375 C 1211.929688 1232.121094 1201.210938 1242.089844 1193.390625 1247.261719 C 1187.96875 1251.25 1172.808594 1259.726562 1147.890625 1272.671875 L 1133.441406 1282.019531 C 1120.5 1291.390625 1111.789062 1299.351562 1107.308594 1305.90625 C 1105.601562 1307.445312 1100.960938 1314.277344 1093.390625 1326.410156 C 1087.070312 1337.382812 1081.820312 1348.335938 1077.628906 1359.265625 C 1072.96875 1372.136719 1070.519531 1379.632812 1070.289062 1381.753906 C 1067.910156 1391.183594 1066.691406 1399.859375 1066.648438 1407.78125 C 1087.980469 1390.335938 1101.96875 1379.917969 1108.589844 1376.527344 C 1113.378906 1373.449219 1130.488281 1366.054688 1159.941406 1354.339844 L 1171.789062 1348.195312 C 1178.78125 1345.40625 1187.710938 1338.425781 1198.570312 1327.246094 C 1204.410156 1320.65625 1209.941406 1312.742188 1215.179688 1303.507812 C 1223.070312 1289.207031 1227.28125 1279.15625 1227.828125 1273.347656 C 1229.941406 1264.78125 1230.980469 1254.199219 1230.949219 1241.601562 C 1230.378906 1225.429688 1228.609375 1217.339844 1225.640625 1217.351562 "/>
    <path fill-rule="nonzero" fill="green" fill-opacity="1"
          d="M 629.296875 1219.230469 L 629.410156 1219.230469 C 643.101562 1233.910156 653.878906 1243.808594 661.738281 1248.929688 C 667.175781 1252.890625 682.394531 1261.273438 707.398438 1274.058594 L 721.902344 1283.316406 C 734.898438 1292.601562 743.65625 1300.511719 748.179688 1307.039062 C 749.902344 1308.566406 754.585938 1315.371094 762.234375 1327.453125 C 768.617188 1338.386719 773.9375 1349.304688 778.199219 1360.207031 C 782.9375 1373.050781 785.433594 1380.53125 785.675781 1382.652344 C 788.121094 1392.066406 789.390625 1400.734375 789.484375 1408.652344 C 768.035156 1391.34375 753.988281 1381.015625 747.34375 1377.664062 C 742.539062 1374.617188 725.378906 1367.328125 695.863281 1355.800781 L 683.96875 1349.730469 C 676.960938 1346.988281 667.988281 1340.0625 657.050781 1328.949219 C 651.179688 1322.398438 645.59375 1314.519531 640.304688 1305.316406 C 632.324219 1291.070312 628.042969 1281.042969 627.460938 1275.238281 C 625.289062 1266.6875 624.183594 1256.109375 624.140625 1243.511719 C 624.609375 1227.328125 626.328125 1219.238281 629.296875 1219.230469 "/>
</svg>
